# xmcd
#
# Track frame offsets: 
#        150
#        19443
#        35443
#        54469
#        72072
#        92633
#        113790
#        129159
#        146380
#        166228
#        183281
#        215868
#
# Disc length: 3249 seconds
#
# Revision: 1
# Processed by: cddbd v1.5.2PL0 Copyright (c) Steve Scherf et al.
# Submitted via: ExactAudioCopyFreeDBPlugin 1.0
#
DISCID=a30caf0c
DTITLE=Stacy Lattisaw - Take Me All The Way
DYEAR=1986
DGENRE=R&B
TTITLE0=Jump Into My Life
TTITLE1=The Hard Way
TTITLE2=Take Me All The Way
TTITLE3=A Little Bit Of Heaven
TTITLE4=Longshot
TTITLE5=Nail It To The Wall
TTITLE6=Love Me Like The First Time
TTITLE7=You Ain't Leavin'
TTITLE8=Over The Top
TTITLE9=One More Noght
TTITLE10=Jump Into My Life (Jellybean Remix)
TTITLE11=Nail It To The Wall (Jellybean Remix)
EXTD=
EXTT0=
EXTT1=
EXTT2=
EXTT3=
EXTT4=
EXTT5=
EXTT6=
EXTT7=
EXTT8=
EXTT9=
EXTT10=
EXTT11=
PLAYORDER=
